<svg width="205" height="170" viewBox="0 0 205 170" fill="none" xmlns="http://www.w3.org/2000/svg">
<path d="M85.4167 23.0208C77.1612 23.0208 70.4688 28.5706 70.4688 35.4167V58.4375H42.7084C34.4529 58.4375 27.7605 63.9873 27.7605 70.8333V99.1667C27.7605 106.013 34.4529 111.562 42.7084 111.562H70.4688V134.583C70.4688 141.429 77.1612 146.979 85.4167 146.979H119.583C127.839 146.979 134.531 141.429 134.531 134.583V111.562H162.292C170.547 111.562 177.24 106.013 177.24 99.1667V70.8333C177.24 63.9873 170.547 58.4375 162.292 58.4375H134.531V35.4167C134.531 28.5706 127.839 23.0208 119.583 23.0208H85.4167Z" fill="#FFB800"/>
</svg>
