<svg width="205" height="170" viewBox="0 0 205 170" fill="none" xmlns="http://www.w3.org/2000/svg">
<g clip-path="url(#clip0_3221_438)">
<path d="M44.262 136.745C42.1664 138.675 40.602 140.895 39.7264 143.142C39.1134 144.724 38.8191 146.286 38.8191 147.749C38.8191 148.641 38.9256 149.492 39.157 150.296C39.3324 150.893 39.5698 151.464 39.8889 151.988C40.1268 152.387 40.4146 152.766 40.7522 153.108C41.2591 153.617 41.8845 154.058 42.6292 154.364C43.3675 154.675 44.2184 154.841 45.0816 154.836V151.593C44.9002 151.593 44.7625 151.572 44.6312 151.541C44.3997 151.49 44.212 151.401 43.9993 151.246C43.8492 151.126 43.6866 150.971 43.5365 150.758C43.3111 150.452 43.0985 150.026 42.9547 149.518C42.811 149.004 42.7293 148.408 42.7293 147.749C42.7293 146.654 42.9607 145.409 43.4488 144.133C43.9057 142.96 44.6312 141.746 45.5821 140.595C47.0023 138.862 48.9418 137.28 51.1812 136.148C52.2946 135.583 53.4958 135.126 54.741 134.815C55.9922 134.504 57.2999 134.338 58.6512 134.338C60.453 134.338 62.1799 134.638 63.7939 135.178C66.2086 135.977 68.3919 137.32 70.1376 138.924C71.8769 140.522 73.1718 142.379 73.8477 144.132C74.3417 145.409 74.5736 146.654 74.5736 147.749C74.5736 148.418 74.4859 149.025 74.3357 149.539C74.2292 149.922 74.0791 150.265 73.9165 150.535C73.7912 150.742 73.6599 150.908 73.5225 151.048C73.3223 151.251 73.1222 151.38 72.9284 151.463C72.7282 151.541 72.5216 151.588 72.2213 151.593V154.836C72.7342 154.841 73.2411 154.779 73.7227 154.67C74.5672 154.478 75.3243 154.115 75.9437 153.642C76.4066 153.29 76.7945 152.885 77.1136 152.444C77.6017 151.78 77.9397 151.043 78.1583 150.255C78.3769 149.466 78.4838 148.626 78.4838 147.749C78.4838 146.286 78.1899 144.719 77.5765 143.142C76.9947 141.643 76.1063 140.159 74.9551 138.763C73.2283 136.672 70.926 134.773 68.1609 133.373C66.7784 132.678 65.2829 132.107 63.6877 131.713C62.0926 131.308 60.4033 131.09 58.6516 131.09C56.3182 131.09 54.0908 131.485 52.0576 132.164C48.9978 133.181 46.3576 134.82 44.262 136.745Z" fill="#FFB800"/>
<path d="M66.3023 150.114C65.6641 150.535 65.2889 151.168 65.2889 151.847V154.467C65.2889 155.142 65.6645 155.78 66.3023 156.2C66.9405 156.615 67.779 156.771 68.5669 156.615L70.6754 156.2V150.109L68.5669 149.694C67.7786 149.539 66.9405 149.694 66.3023 150.114Z" fill="#FFB800"/>
<path d="M48.7352 149.694L46.6207 150.109V156.2L48.7352 156.615C49.5236 156.771 50.362 156.615 50.9998 156.2C51.638 155.78 52.0132 155.142 52.0132 154.467V151.847C52.0132 151.168 51.6376 150.535 50.9998 150.114C50.362 149.694 49.5236 149.539 48.7352 149.694Z" fill="#FFB800"/>
<path d="M181.558 142.639C180.751 140.138 179.613 137.897 178.211 135.905C175.753 132.403 172.499 129.679 168.909 127.521C166.213 125.902 163.335 124.579 160.407 123.443C156.021 121.742 151.536 120.434 147.394 119.163C143.253 117.897 139.468 116.657 136.521 115.215C135.445 114.686 134.476 114.136 133.637 113.56C132.386 112.694 131.41 111.77 130.703 110.738C129.996 109.705 129.521 108.543 129.339 107.091C129.208 106.053 129.152 105.078 129.152 104.144C129.152 101.394 129.64 99.013 130.265 96.5799C132.117 94.8471 133.812 92.7822 135.414 90.3128C137.022 87.8279 138.548 84.9276 140.068 81.4931C141.044 81.1249 142.027 80.6836 142.983 80.144C145.173 78.9301 147.25 77.2285 148.983 74.9614C150.71 72.6943 152.098 69.877 153.049 66.4013C153.312 65.4364 153.437 64.4765 153.437 63.5322C153.444 61.5606 152.88 59.6826 151.936 58.0019C151.279 56.8345 150.447 55.766 149.477 54.7958C149.971 53.2807 150.572 51.2421 151.11 48.8554C151.848 45.5404 152.461 41.556 152.461 37.3691C152.461 34.6661 152.204 31.875 151.541 29.1201C151.047 27.0552 150.315 25.0059 149.289 23.045C147.744 20.0929 145.498 17.3174 142.376 15.0244C139.486 12.9024 135.863 11.2114 131.49 10.127C129.945 8.59131 128.394 7.28377 126.805 6.17379C125.428 5.2192 124.021 4.41502 122.582 3.75627C120.417 2.76018 118.177 2.10143 115.881 1.70166C113.586 1.30189 111.246 1.1568 108.818 1.1568C105.471 1.1568 101.949 1.43172 98.0577 1.74814C96.5874 1.87266 95.355 2.02307 94.2852 2.17879C92.69 2.41752 91.4949 2.66123 90.5379 2.82227C90.0563 2.89996 89.6371 2.96238 89.2243 3.00389C88.8115 3.04008 88.4111 3.06631 87.9542 3.06631C87.3412 3.06631 86.6341 3.0248 85.7084 2.9159C82.8745 2.57357 80.2843 2.04432 78.2511 1.52535C77.2378 1.27102 76.3617 1.01701 75.6734 0.798867C75.3295 0.689961 75.0292 0.591348 74.7914 0.50834C74.5475 0.425332 74.3658 0.347637 74.2597 0.306133L74.2661 0.311445C73.9534 0.176641 73.6531 0.103926 73.384 0.0624219C73.1149 0.010293 72.8775 0 72.6709 0C72.2393 0 71.9326 0.0517969 71.6887 0.103926C71.4449 0.156055 71.2571 0.218145 71.0882 0.275254C70.7626 0.38416 70.5124 0.498379 70.2621 0.622891C69.8053 0.851328 69.3677 1.10533 68.9044 1.40117C68.0972 1.92014 67.2092 2.56328 66.2642 3.32064C64.8505 4.45154 63.3362 5.82117 61.96 7.31531C61.2718 8.05707 60.6276 8.83535 60.0458 9.63953C59.464 10.4437 58.9511 11.2685 58.5443 12.1351C56.5548 16.4256 55.2411 20.3787 54.4279 24.0261C53.6083 27.6731 53.2956 31.0144 53.2956 34.0804C53.2956 39.097 54.14 43.3513 54.9536 46.9466C54.9536 47.1179 54.96 47.2786 54.9724 47.4499C54.9977 47.7873 55.0413 48.1349 55.0849 48.4978C55.1538 49.0374 55.2287 49.5925 55.2851 50.0594C55.3164 50.2928 55.3416 50.5003 55.3604 50.6613C55.3668 50.739 55.3728 50.8117 55.3728 50.8635L55.3792 50.9153V50.9309V50.9363V51.2424L56.1736 54.1736C55.0289 55.2112 54.0403 56.3733 53.2708 57.6496C52.1945 59.424 51.5567 61.4264 51.5567 63.5431C51.5567 64.4771 51.688 65.442 51.9507 66.4016C52.5765 68.7205 53.4085 70.7439 54.4031 72.508C55.8921 75.1589 57.7816 77.2188 59.8708 78.7648C61.4912 79.9684 63.2241 80.8453 64.9382 81.4938C66.452 84.9283 67.9787 87.8233 69.5863 90.3082C71.1879 92.7828 72.8771 94.8424 74.7289 96.5753C75.3547 99.0084 75.8424 101.395 75.8488 104.145C75.8488 105.079 75.7863 106.054 75.655 107.091C75.5297 108.087 75.267 108.949 74.8855 109.727C74.3161 110.889 73.4841 111.88 72.3518 112.819C71.2195 113.743 69.7741 114.609 68.0664 115.413C66.3335 116.228 64.3252 116.991 62.1418 117.717C58.3129 119.004 53.9462 120.218 49.5231 121.686C46.2075 122.781 42.8478 124.031 39.6447 125.592C37.2423 126.765 34.9337 128.124 32.8068 129.738C29.6225 132.155 26.8758 135.169 24.9804 138.894C23.0785 142.624 22.0211 147.039 22.0275 152.259C22.0275 152.995 22.2153 153.696 22.5216 154.344C22.8031 154.951 23.1974 155.506 23.6603 156.035C24.5363 157.021 25.6622 157.903 27.0448 158.754C29.4724 160.238 32.6939 161.628 36.8668 162.936C43.1229 164.892 51.5063 166.65 62.348 167.926C73.1838 169.203 86.478 170.002 102.494 170.002C116.388 170.002 128.225 169.405 138.191 168.414C145.661 167.667 152.086 166.702 157.535 165.597C161.626 164.772 165.174 163.864 168.214 162.91C170.492 162.194 172.493 161.447 174.232 160.679C175.534 160.103 176.685 159.511 177.705 158.905C179.231 157.986 180.457 157.042 181.389 155.968C181.859 155.434 182.24 154.863 182.522 154.24C182.803 153.628 182.972 152.954 182.972 152.259C182.972 148.688 182.478 145.497 181.558 142.639ZM131.034 118.898L110.952 144.906L108.712 132.138L114.412 127.137L110.72 122.032L126.298 115.241C126.73 115.703 127.186 116.138 127.668 116.553C128.701 117.43 129.833 118.203 131.034 118.898ZM73.3027 28.9385C91.408 32.2691 126.811 25.9034 126.811 25.9034C126.811 25.9034 127.193 33.1822 133.23 39.8643C135.608 42.4894 137.565 46.5933 139.036 50.4946C138.642 49.8877 137.716 49.6593 136.333 49.5142C133.23 49.1665 128.619 48.9434 123.427 49.1509C107.999 49.7788 109.144 50.9409 103.088 50.9409C97.0323 50.9409 98.177 49.7788 82.7495 49.1509C77.5569 48.9434 72.9464 49.1665 69.8369 49.5142C68.223 49.6905 67.2092 49.9604 66.9777 50.8526C66.8965 51.1846 66.7711 51.5581 66.2146 51.7398C67.9227 46.4482 72.6773 39.688 73.3027 28.9385ZM136.102 58.5932C136.102 58.6659 136.039 66.0018 130.02 68.5073C127.975 69.3633 125.41 69.8355 122.801 69.8408C120.048 69.8408 117.533 69.3218 115.525 68.3413C113.304 67.2622 111.809 65.6592 111.077 63.589C110.902 63.1065 110.746 62.6241 110.583 62.1569C110.107 60.7302 108.825 56.7667 111.546 55.0236C113.298 53.8873 118.735 53.1715 123.946 53.1715C128.682 53.1715 133.512 53.7057 134.926 54.9303C135.858 55.7397 136.221 57.1821 136.102 58.5932ZM95.5933 62.1572C95.4307 62.6241 95.2678 63.1065 95.0992 63.5893C94.3673 65.6592 92.8718 67.2626 90.6572 68.3417C88.6429 69.3221 86.1276 69.8411 83.3749 69.8411C80.766 69.8358 78.2075 69.3636 76.1555 68.5077C70.1372 66.0018 70.0808 58.6659 70.0744 58.5936C69.9555 57.1824 70.3182 55.7401 71.2443 54.9309C72.6645 53.7064 77.494 53.1721 82.2302 53.1721C87.4353 53.1721 92.8782 53.888 94.6359 55.0242C97.3514 56.7671 96.0689 60.7305 95.5933 62.1572ZM75.4925 87.6772C73.9221 85.249 72.3582 82.2299 70.7502 78.4633L70.2185 77.2338L68.7419 76.7826C67.7157 76.4711 66.7147 76.0667 65.7578 75.5321C64.3127 74.728 62.9426 73.6283 61.685 71.9887C60.4274 70.3491 59.3015 68.1494 58.4883 65.1767C58.3317 64.6113 58.2693 64.0717 58.2693 63.5425C58.2693 62.3492 58.6132 61.2183 59.2702 60.1392C59.8084 59.2417 60.5591 58.396 61.4724 57.628C63.0115 59.5581 64.2875 61.0884 64.7508 61.4723C65.6328 62.2037 66.0709 61.4982 66.1397 60.1285C66.6839 63.1739 68.4296 68.2012 74.0663 70.6861C82.1806 74.2608 94.2924 72.922 98.4024 64.9639C100.261 61.3737 100.285 57.8667 103.088 57.8667C105.885 57.8667 105.916 61.374 107.774 64.9639C111.89 72.9224 124.002 74.2608 132.117 70.6861C140.224 67.1115 140.281 58.2609 140.281 57.6383C140.281 57.3166 140.65 57.0728 141.175 57.026C141.864 59.4279 142.22 61.0572 142.22 61.0572C142.22 61.0572 142.996 59.8277 144.159 58.1881C144.854 58.8625 145.429 59.589 145.855 60.3463C146.424 61.3634 146.731 62.4269 146.731 63.5319C146.731 64.0661 146.662 64.611 146.505 65.1714C145.967 67.1533 145.285 68.7926 144.522 70.1519C143.371 72.1856 142.045 73.5864 140.656 74.6137C139.273 75.641 137.797 76.3101 136.264 76.7822L134.782 77.2285L134.256 78.4633C132.648 82.2299 131.077 85.2543 129.508 87.6772C127.931 90.1053 126.367 91.9315 124.741 93.3529L124.096 93.9184L123.896 94.6707C123.17 97.4462 122.445 100.513 122.445 104.144C122.445 105.265 122.514 106.432 122.664 107.661C122.845 109.104 123.245 110.458 123.84 111.703C123.865 111.76 123.902 111.822 123.928 111.874L103.551 120.761L80.967 112.072C81.6613 110.722 82.1305 109.249 82.3307 107.662C82.4873 106.432 82.5497 105.265 82.5497 104.144C82.5562 100.512 81.8302 97.4412 81.0983 94.6658L80.8981 93.9134L80.2539 93.3529C78.6331 91.9209 77.0628 90.105 75.4925 87.6772ZM75.3111 118.068C76.4874 117.285 77.5697 116.408 78.5266 115.422L95.7498 122.053L92.071 127.137L97.7642 132.138L95.6621 144.159L73.6907 119.054C74.2476 118.737 74.7918 118.411 75.3111 118.068ZM176.26 152.236C176.253 152.268 176.21 152.371 176.091 152.537C175.865 152.859 175.34 153.378 174.451 153.969C173.682 154.483 172.643 155.059 171.336 155.65C169.04 156.693 165.931 157.777 161.989 158.805C156.071 160.351 148.257 161.762 138.397 162.789C128.538 163.806 116.633 164.439 102.494 164.439C88.8427 164.439 77.269 163.847 67.6096 162.888C60.3649 162.166 54.1965 161.233 49.0539 160.195C45.1877 159.412 41.8969 158.566 39.163 157.705C37.1046 157.061 35.3593 156.408 33.9267 155.77C32.8505 155.292 31.9436 154.821 31.2052 154.385C30.1042 153.731 29.4035 153.134 29.0531 152.724C28.8778 152.527 28.7905 152.371 28.7593 152.299C28.7404 152.268 28.734 152.247 28.734 152.237C28.734 149.124 29.1597 146.457 29.8976 144.143C30.5418 142.12 31.4303 140.361 32.5125 138.805C34.402 136.081 36.8856 133.944 39.8385 132.143C42.0406 130.789 44.5118 129.632 47.1268 128.6C50.0608 127.443 53.1763 126.447 56.3045 125.487V131.09H58.6504H60.9963V124.05C63.9868 123.121 66.9021 122.167 69.6171 121.026L104.332 160.688L134.662 121.42C134.755 121.539 134.85 121.659 134.937 121.773C136.201 123.459 137.083 125.295 137.671 127.376C138.253 129.451 138.522 131.775 138.522 134.364C138.522 140.362 138.522 145.586 138.522 149.103H127.625V152.999H154.451V149.103H143.552C143.552 145.586 143.552 140.362 143.552 134.364C143.552 130.593 143.033 127.158 141.744 124.024C141.632 123.754 141.513 123.485 141.388 123.22C145.054 124.418 148.888 125.498 152.605 126.722C155.789 127.765 158.88 128.906 161.689 130.26C163.803 131.277 165.762 132.418 167.501 133.715C170.11 135.682 172.249 138 173.788 140.973C175.321 143.941 176.26 147.593 176.26 152.236Z" fill="#FFB800"/>
</g>
<defs>
<clipPath id="clip0_3221_438">
<rect width="205" height="170" fill="white"/>
</clipPath>
</defs>
</svg>
