<svg width="205" height="178" viewBox="0 0 205 178" fill="none" xmlns="http://www.w3.org/2000/svg">
<g clip-path="url(#clip0_3221_463)" filter="url(#filter0_d_3221_463)">
<path d="M184.044 159.816L171.601 122.179L176.626 95.6565C177.23 92.4697 177.119 89.2174 176.299 86.0638L163.777 37.9591C162.361 32.5028 155.88 29.0318 149.3 30.2059C144.222 31.112 130.264 33.6029 128.055 33.997C121.476 35.1711 117.29 40.546 118.706 46.0022L120.074 51.2742L130.664 41.8173L120.879 57.6536L94.2433 65.9112C94.6865 63.8423 95.3688 61.5074 96.4146 59.0976C98.7136 53.8017 102.772 48.1488 109.927 44.1827C118.818 39.2554 123.89 32.8595 126.785 27.1658C134.79 25.4376 140.182 18.9998 139.082 12.0208C137.89 4.45916 129.532 -0.869944 120.414 0.118181C111.295 1.10631 104.869 8.03746 106.06 15.5991C106.069 15.6572 106.083 15.7137 106.093 15.7715C103.553 20.3316 99.4199 29.9519 97.6398 46.4379C92.9476 51.257 90.3246 56.6847 88.8676 61.4367C88.0416 64.1308 87.59 66.6061 87.3457 68.6308C86.5794 69.2401 85.972 69.9646 85.5476 70.7575C83.9336 69.2199 82.117 68.4499 80.5455 68.8413C78.6789 69.3062 77.8789 71.1802 77.6339 72.8041C76.4551 72.1879 75.111 71.7536 73.6492 71.5564C72.1605 71.3551 57.1042 69.3244 54.8168 69.016C48.9843 68.2297 43.4621 71.5089 42.5388 76.3492C37.0527 105.099 35.8499 111.568 34.7592 119.632C34.4657 121.924 35.4855 124.021 37.2909 125.488H27.4193C23.6572 125.488 20.6074 128.017 20.6074 131.137V164.35C20.6074 167.47 23.6572 169.999 27.4193 169.999C31.1813 169.999 34.2311 167.47 34.2311 164.35V155.062H61.2086V164.35C61.2086 167.47 64.2584 169.999 68.0205 169.999C71.7826 169.999 74.8323 167.47 74.8323 164.35L74.8776 129.552L82.7449 130.051L76.6189 161.726C75.8661 165.62 79.0621 169.283 83.7574 169.908C88.4524 170.532 92.8699 167.882 93.6235 163.988L101.23 124.653C101.544 123.032 101.162 121.386 100.191 119.979C99.9817 119.676 99.7546 119.379 99.49 119.101C98.1779 117.721 96.3045 116.799 94.2373 116.494C95.1025 115.877 95.806 115.083 96.2476 114.139C97.6822 111.076 95.85 107.628 92.156 106.439L69.0171 98.9881L64.0262 80.1424L72.4352 93.7055L79.6863 96.0404L81.7215 85.664C82.1523 85.5093 82.5727 85.3499 82.9727 85.1819C84.746 86.4005 86.8184 86.7478 88.2947 85.326C89.3325 84.3266 89.8726 82.6007 89.8302 80.5401C90.0448 80.3107 90.2474 80.0826 90.438 79.8555C92.1961 80.3313 94.0535 80.2964 95.7748 79.7625L129.484 69.3122C131.374 68.7265 132.932 67.576 133.852 66.0865L145.066 47.9363L140.026 68.7092C138.989 72.9834 134.664 73.8477 131.913 74.6997L126.582 76.3526L132.148 96.636L122.25 119.014C121.622 120.435 121.489 121.975 121.867 123.456L132.122 163.613C133.233 167.961 138.38 170.744 143.633 169.823C148.88 168.901 152.233 164.627 151.122 160.276L141.445 122.385C155.336 90.9799 154.475 92.9412 154.593 92.6311L157.515 92.1098L152.092 121.432C151.885 122.55 151.964 123.692 152.325 124.783L165.316 164.075C166.735 168.366 172.08 170.887 177.248 169.711C182.419 168.535 185.463 164.105 184.044 159.816ZM109.694 22.5622C112.172 25.0637 115.668 26.8032 119.581 27.3949C114.37 35.9038 107.199 39.2564 104.803 40.7312C106.12 32.5633 108.013 26.6196 109.694 22.5622ZM61.2086 147.53H34.2311V136.786H61.2086V147.53ZM81.0136 115.619L57.0466 113.747C52.3468 113.38 48.7617 110.09 48.8093 106.176C48.8101 106.095 48.8129 106.016 48.8165 105.935L50.0093 82.6973L55.8254 104.659C56.3407 106.605 57.9967 108.208 60.2373 108.929L81.0136 115.619Z" fill="#FFB800" stroke="#FFB800" stroke-width="1.5625"/>
<path d="M69.941 64.2773C78.6883 64.2773 85.7793 58.3969 85.7793 51.1431C85.7793 43.8893 78.6883 38.009 69.941 38.009C61.1938 38.009 54.1028 43.8893 54.1028 51.1431C54.1028 58.3969 61.1938 64.2773 69.941 64.2773Z" fill="#FFB800" stroke="#FFB800" stroke-width="1.5625"/>
</g>
<defs>
<filter id="filter0_d_3221_463" x="-4" y="0" width="213" height="178" filterUnits="userSpaceOnUse" color-interpolation-filters="sRGB">
<feFlood flood-opacity="0" result="BackgroundImageFix"/>
<feColorMatrix in="SourceAlpha" type="matrix" values="0 0 0 0 0 0 0 0 0 0 0 0 0 0 0 0 0 0 127 0" result="hardAlpha"/>
<feOffset dy="4"/>
<feGaussianBlur stdDeviation="2"/>
<feComposite in2="hardAlpha" operator="out"/>
<feColorMatrix type="matrix" values="0 0 0 0 0 0 0 0 0 0 0 0 0 0 0 0 0 0 0.25 0"/>
<feBlend mode="normal" in2="BackgroundImageFix" result="effect1_dropShadow_3221_463"/>
<feBlend mode="normal" in="SourceGraphic" in2="effect1_dropShadow_3221_463" result="shape"/>
</filter>
<clipPath id="clip0_3221_463">
<rect width="205" height="170" fill="white"/>
</clipPath>
</defs>
</svg>
