<svg width="205" height="170" viewBox="0 0 205 170" fill="none" xmlns="http://www.w3.org/2000/svg">
<path fill-rule="evenodd" clip-rule="evenodd" d="M144.541 140.117L138.135 134.805L134.932 137.793C132.93 139.121 132.93 141.445 134.932 143.105C136.533 144.434 139.336 144.434 141.338 143.105L144.541 140.117ZM150.547 170C136.133 170 123.721 162.363 119.316 151.406H24.4238C22.8223 151.406 21.6211 150.41 21.6211 149.414V2.32422C21.6211 0.996094 22.8223 0 24.4238 0H116.914C117.314 0 118.115 0.332031 118.516 0.664062L160.156 35.5273C160.557 35.8594 160.957 36.5234 160.957 37.1875V116.875C174.17 120.527 183.379 130.82 183.379 142.773C183.379 157.715 168.564 170 150.547 170ZM123.32 142.773C123.32 143.105 123.32 143.105 123.32 143.105V143.438V143.77V144.102V144.434V144.766V145.098V145.43V145.762V146.094V146.426H123.721V146.758V147.09V147.422V147.754V148.086L124.121 148.418C124.121 148.418 124.121 148.75 124.121 149.082C127.324 158.379 138.135 165.352 150.547 165.352C165.762 165.352 177.773 155.391 177.773 142.773C177.773 131.816 168.564 122.52 156.152 120.527C155.752 120.527 155.752 120.527 155.352 120.527C155.352 120.195 154.951 120.195 154.951 120.195H154.551H154.15C153.75 120.195 153.75 120.195 153.35 120.195C152.949 120.195 152.949 120.195 152.549 120.195H152.148C151.748 120.195 151.348 120.195 151.348 120.195C150.947 120.195 150.947 119.863 150.547 119.863C150.146 119.863 150.146 120.195 149.746 120.195H149.346C148.945 120.195 148.545 120.195 148.545 120.195C148.145 120.195 148.145 120.195 147.744 120.195C147.344 120.195 147.344 120.195 146.943 120.195H146.543C146.143 120.195 146.143 120.195 145.742 120.527C145.342 120.527 145.342 120.527 144.941 120.527H144.541C144.141 120.527 144.141 120.859 143.74 120.859C143.34 120.859 143.34 120.859 142.939 120.859C142.939 120.859 142.539 120.859 142.539 121.191C142.139 121.191 142.139 121.191 141.738 121.191C141.738 121.191 141.338 121.191 141.338 121.523C130.527 124.512 123.32 132.812 123.32 142.773ZM27.2266 147.09H118.115V146.758C118.115 146.758 118.115 146.426 118.115 146.094C118.115 146.094 117.715 145.762 117.715 145.43C117.715 145.43 117.715 145.098 117.715 144.766C117.715 144.434 117.715 144.434 117.715 144.102C117.715 143.77 117.715 143.77 117.715 143.438C117.715 143.105 117.715 143.105 117.715 142.773C117.715 142.441 117.715 142.441 117.715 142.109C117.715 141.777 117.715 141.445 117.715 141.445C117.715 141.113 117.715 140.781 117.715 140.781C117.715 140.449 117.715 140.117 117.715 140.117C117.715 139.785 118.115 139.453 118.115 139.121C118.115 139.121 118.115 138.789 118.115 138.457C118.115 138.457 118.115 138.125 118.115 137.793C118.115 137.793 118.115 137.461 118.516 137.129C118.516 137.129 118.516 136.797 118.516 136.465C118.516 136.465 118.516 136.133 118.916 135.801C118.916 135.801 118.916 135.469 118.916 135.137C118.916 135.137 118.916 134.805 119.316 134.805C119.316 134.473 119.316 134.141 119.316 134.141C119.316 133.809 119.717 133.477 119.717 133.477C119.717 133.145 119.717 132.812 120.117 132.812C120.117 132.48 120.117 132.48 120.117 132.148C120.518 131.816 120.518 131.816 120.518 131.484C120.518 131.484 120.918 131.152 120.918 130.82L121.318 130.488C121.318 130.156 121.719 129.824 121.719 129.824C121.719 129.492 122.119 129.492 122.119 129.16C122.52 128.496 122.92 128.164 123.32 127.5C124.521 126.172 125.322 125.176 126.924 123.848C127.324 123.516 127.324 123.184 127.725 123.184C128.125 122.852 128.125 122.852 128.525 122.52L128.926 122.188C129.326 121.855 129.326 121.855 129.727 121.855C130.127 121.191 130.928 120.859 131.729 120.527L132.129 120.195C132.529 120.195 132.529 119.863 132.93 119.863C132.93 119.531 133.33 119.531 133.73 119.531C133.73 119.199 134.131 119.199 134.131 119.199C134.531 118.867 134.531 118.867 134.932 118.867C135.332 118.535 135.332 118.535 135.732 118.535L136.133 118.203C136.533 118.203 136.934 117.871 136.934 117.871C137.334 117.871 137.734 117.871 137.734 117.539C138.135 117.539 138.135 117.539 138.535 117.539C138.936 117.207 138.936 117.207 139.336 117.207C139.336 117.207 139.736 116.875 140.137 116.875C140.137 116.875 140.537 116.875 140.938 116.875C140.938 116.543 141.338 116.543 141.738 116.543C141.738 116.543 142.139 116.543 142.539 116.211C142.539 116.211 142.939 116.211 143.34 116.211C143.34 116.211 143.74 116.211 144.141 116.211C144.141 115.879 144.541 115.879 144.941 115.879C144.941 115.879 145.342 115.879 145.742 115.879C145.742 115.879 146.143 115.879 146.543 115.879C146.543 115.547 146.943 115.547 147.344 115.547C147.344 115.547 147.744 115.547 148.145 115.547C148.145 115.547 148.545 115.547 148.945 115.547C149.346 115.547 149.346 115.547 149.746 115.547C150.146 115.547 150.146 115.547 150.547 115.547C150.947 115.547 150.947 115.547 151.348 115.547C152.949 115.547 154.15 115.547 155.352 115.879V37.8516L115.713 4.64844H27.2266V147.09ZM93.6914 62.0898H84.082C82.4805 62.0898 81.2793 61.0938 81.2793 60.0977V50.8008H70.4688C68.8672 50.8008 67.666 49.8047 67.666 48.4766V40.5078C67.666 39.1797 68.8672 38.1836 70.4688 38.1836H81.2793V29.2188C81.2793 27.8906 82.4805 26.8945 84.082 26.8945H93.6914C95.293 26.8945 96.4941 27.8906 96.4941 29.2188V38.1836H107.305C108.906 38.1836 110.107 39.1797 110.107 40.5078V48.4766C110.107 49.8047 108.906 50.8008 107.305 50.8008H96.4941V60.0977C96.4941 61.0938 95.293 62.0898 93.6914 62.0898ZM86.8848 57.7734H90.8887V48.4766C90.8887 47.4805 92.0898 46.4844 93.6914 46.4844H104.502V42.832H93.6914C92.0898 42.832 90.8887 41.8359 90.8887 40.5078V31.543H86.8848V40.5078C86.8848 41.8359 85.6836 42.832 84.082 42.832H72.8711V46.4844H84.082C85.6836 46.4844 86.8848 47.4805 86.8848 48.4766V57.7734ZM128.125 83.6719H54.4531C52.8516 83.6719 51.6504 82.6758 51.6504 81.3477C51.6504 80.0195 52.8516 79.0234 54.4531 79.0234H128.125C129.326 79.0234 130.527 80.0195 130.527 81.3477C130.527 82.6758 129.326 83.6719 128.125 83.6719ZM144.541 94.2969H38.0371C36.4355 94.2969 35.2344 93.3008 35.2344 91.9727C35.2344 90.6445 36.4355 89.6484 38.0371 89.6484H144.541C146.143 89.6484 147.344 90.6445 147.344 91.9727C147.344 93.3008 146.143 94.2969 144.541 94.2969ZM144.541 104.922H38.0371C36.4355 104.922 35.2344 103.926 35.2344 102.598C35.2344 101.27 36.4355 100.273 38.0371 100.273H144.541C146.143 100.273 147.344 101.27 147.344 102.598C147.344 103.926 146.143 104.922 144.541 104.922ZM144.541 115.547H38.0371C36.4355 115.547 35.2344 114.551 35.2344 113.223C35.2344 111.895 36.4355 110.898 38.0371 110.898H144.541C146.143 110.898 147.344 111.895 147.344 113.223C147.344 114.551 146.143 115.547 144.541 115.547ZM110.107 126.172H38.0371C36.4355 126.172 35.2344 125.176 35.2344 123.848C35.2344 122.52 36.4355 121.523 38.0371 121.523H110.107C111.709 121.523 112.91 122.52 112.91 123.848C112.91 125.176 111.709 126.172 110.107 126.172ZM110.107 136.797H38.0371C36.4355 136.797 35.2344 135.801 35.2344 134.473C35.2344 133.145 36.4355 132.148 38.0371 132.148H110.107C111.709 132.148 112.91 133.145 112.91 134.473C112.91 135.801 111.709 136.797 110.107 136.797ZM88.8867 70.3906C71.6699 70.3906 57.6562 58.7695 57.6562 44.4922C57.6562 30.2148 71.6699 18.9258 88.8867 18.9258C106.104 18.9258 120.117 30.2148 120.117 44.4922C120.117 58.7695 106.104 70.3906 88.8867 70.3906ZM88.8867 23.2422C74.873 23.2422 63.2617 32.8711 63.2617 44.4922C63.2617 56.4453 74.873 65.7422 88.8867 65.7422C102.9 65.7422 114.512 56.4453 114.512 44.4922C114.512 32.8711 102.9 23.2422 88.8867 23.2422ZM159.355 161.367C155.752 161.367 152.949 160.371 150.547 158.379L150.146 158.047C145.342 154.062 145.742 147.754 150.547 143.77C152.549 141.777 155.752 140.449 159.355 140.449C162.559 140.449 165.762 141.777 168.164 143.77C172.969 147.754 172.969 154.395 168.164 158.379C165.762 160.371 162.559 161.367 159.355 161.367ZM159.355 145.098C157.354 145.098 155.752 145.762 154.15 146.758C152.148 148.418 151.748 151.074 152.549 153.066L161.758 145.43C160.957 145.43 160.156 145.098 159.355 145.098ZM156.553 156.387C157.354 156.719 158.154 156.719 159.355 156.719C160.957 156.719 162.959 156.055 164.16 155.059C166.162 153.398 166.562 150.742 165.762 148.75L156.553 156.387ZM136.133 130.156H136.533V129.824L141.738 125.508C143.74 123.848 146.143 123.184 148.945 123.184C151.748 123.184 154.15 123.848 156.152 125.508C157.754 127.168 158.955 129.16 158.955 131.484C158.955 133.477 157.754 135.801 156.152 137.129L150.547 141.777L144.941 146.426C143.34 147.754 140.537 148.75 138.135 148.75C135.332 148.75 132.93 147.754 130.928 146.426C126.924 143.105 126.924 137.793 130.928 134.473L136.133 130.156ZM142.139 131.484L148.545 136.797L152.148 134.141C152.949 133.477 153.35 132.48 153.35 131.484C153.35 130.488 152.949 129.492 152.148 128.828C151.348 127.832 150.146 127.5 148.945 127.5C147.744 127.5 146.543 127.832 145.742 128.828L142.139 131.484Z" fill="#FFB800"/>
</svg>
