<svg width="63" height="63" viewBox="0 0 63 63" fill="none" xmlns="http://www.w3.org/2000/svg">
<path d="M31.9576 0.811451C31.2085 1.20016 30.8053 1.8919 30.8053 2.81359C30.8053 3.53368 30.7763 3.59164 30.4166 3.67795C26.4841 4.54231 23.4009 7.43779 22.4502 11.1687C21.9462 13.099 21.9746 13.2143 24.3087 24.9688C25.5045 30.9903 26.4696 35.9169 26.4551 35.9314C26.4262 35.9459 26.1956 36.0757 25.9511 36.2055C25.6922 36.3353 25.4761 36.5224 25.4761 36.6377C25.4761 36.998 27.4783 39.8355 28.5014 40.945C30.9792 43.5954 34.4366 45.5257 38.0093 46.2748C38.6003 46.4045 39.3349 46.5488 39.6373 46.5917C40.1274 46.6635 40.1702 46.7214 40.1702 47.1391C40.1702 47.8309 39.6662 49.7757 39.1761 50.9708C38.4844 52.656 37.4619 54.2266 36.1074 55.6668C34.1197 57.7697 31.8146 59.1816 29.0054 60.0031C27.392 60.4643 24.3812 60.6369 22.638 60.349C19.4111 59.845 16.6744 58.4476 14.2684 56.1135C12.2663 54.1687 10.8834 51.8351 10.1054 49.026L9.71667 47.5997L9.65934 38.8553L9.61587 30.1115L10.2352 29.9527C13.2025 29.1892 15.2915 27.0717 15.9108 24.2191C16.1559 23.0089 16.1559 22.4904 15.9108 21.2802C15.6084 19.9118 15.0465 18.8168 14.0958 17.8082C11.7623 15.3159 8.42013 14.7111 5.32305 16.2093C4.09833 16.8002 2.67264 18.2984 2.05272 19.6377C0.122405 23.8442 2.52837 28.8861 6.93648 29.8803L7.68555 30.039L7.75737 38.7545C7.82919 46.2886 7.87266 47.5997 8.08875 48.5358C8.93862 52.2094 10.336 54.759 12.929 57.3376C15.0465 59.4266 16.9913 60.6652 19.5554 61.5006C29.6537 64.7993 40.2276 58.3601 41.9412 47.8876L42.1283 46.7353L43.4538 46.6345C49.36 46.1733 54.7623 42.7739 57.802 37.5877C58.09 37.0982 58.3205 36.6515 58.3205 36.5791C58.3205 36.5066 58.1044 36.334 57.8594 36.2048C57.6004 36.0751 57.3699 35.9598 57.3554 35.9453C57.3264 35.9163 58.2916 31.0477 59.4873 25.1124C61.8353 13.4152 61.8643 13.1991 61.3603 11.197C60.4525 7.65325 57.586 4.78675 53.9559 3.8071L52.9907 3.54754V2.81296C52.9907 1.57438 52.1843 0.637573 51.1177 0.637573C50.484 0.637573 49.9075 0.997932 49.5333 1.61722C49.2737 2.02042 49.2454 2.3518 49.2454 4.3111C49.2454 6.2704 49.2744 6.60178 49.5333 7.00498C49.9075 7.63876 50.4405 7.95565 51.1177 7.95565C52.1692 7.95565 52.9907 7.06231 52.9907 5.92453C52.9907 5.33359 53.0052 5.31973 53.3939 5.40604C56.6208 6.18409 59.171 8.86348 59.8332 12.1767L60.0637 13.3434L57.9747 23.9167C56.8224 29.7366 55.8427 34.6343 55.7993 34.8214C55.7275 35.1093 55.684 35.1238 55.4099 34.9801C55.1938 34.8648 55.0786 34.8648 55.0357 34.9656C54.9059 35.3688 53.84 36.9678 53.1199 37.8466C51.4775 39.8488 48.4812 41.7936 45.9461 42.4708C42.3299 43.4662 38.6992 43.1204 35.3432 41.4779C32.8944 40.2677 30.7625 38.3229 29.3361 35.9894C29.0482 35.4992 28.7742 35.0387 28.7597 34.9663C28.7162 34.851 28.6016 34.8655 28.3993 34.9808C28.1398 35.1105 28.0679 35.096 28.0106 34.88C27.9671 34.7502 26.9881 29.8671 25.8352 24.0471L23.7178 13.4738L23.9484 12.2636C24.5532 8.95042 27.1463 6.18472 30.4166 5.40667C30.7914 5.32036 30.8053 5.33485 30.8053 5.92516C30.8053 7.06294 31.6262 7.95628 32.6783 7.95628C33.3555 7.95628 33.8885 7.63939 34.2627 7.00561C34.5217 6.60241 34.5506 6.27103 34.5506 4.31173C34.5506 2.35243 34.5217 2.02105 34.2627 1.61785C33.7153 0.710651 32.7791 0.393761 31.9576 0.811451ZM10.1476 19.3662C10.8532 19.6541 11.6602 20.4612 12.0206 21.2392C12.6978 22.6655 12.323 24.4371 11.1417 25.4747C10.3782 26.1374 9.71541 26.3825 8.69292 26.3825C7.28109 26.3825 6.22962 25.7777 5.48055 24.4957C5.14917 23.9337 5.09184 23.6748 5.09184 22.738C5.09184 21.7728 5.14917 21.5712 5.52402 20.9519C6.561 19.2793 8.41887 18.6455 10.1476 19.3662Z" fill="#FFB800"/>
</svg>
