<svg width="200" height="200" viewBox="0 0 200 200" fill="none" xmlns="http://www.w3.org/2000/svg">
<path fill-rule="evenodd" clip-rule="evenodd" d="M100 0C126.522 0 151.957 10.5357 170.711 29.2893C189.464 48.043 200 73.4783 200 100C200 155.228 155.228 200 100 200C44.7715 200 0 155.228 0 100C0 44.7715 44.7715 0 100 0ZM110 110H90C65.2431 110 43.9882 124.994 34.8213 146.398C49.3262 166.737 73.1143 180 100 180C126.886 180 150.674 166.737 165.179 146.396C156.012 124.994 134.757 110 110 110ZM100 30C83.4315 30 70 43.4315 70 60C70 76.5685 83.4315 90 100 90C116.569 90 130 76.5685 130 60C130 43.4315 116.569 30 100 30Z" fill="#FF00A2" fill-opacity="0.8"/>
</svg>
